<svg class="icon" style="width: 1em;height: 1em;vertical-align: middle;fill: currentColor;overflow: hidden;" viewBox="0 0 1024 1024" version="1.1" xmlns="http://www.w3.org/2000/svg" p-id="603"><path d="M862.848 164.096H143.786667c-57.685333 0-104.405333 46.08-104.405334 102.912v485.973333c0 56.832 46.72 102.912 104.405334 102.912h520.021333a209.365333 209.365333 0 0 1-17.493333-277.589333l-35.712-34.56a46.890667 46.890667 0 0 0-61.013334-3.370667l-32 24.618667a41.002667 41.002667 0 0 1-54.186666-3.712L359.509333 455.253333a46.848 46.848 0 0 0-69.034666 2.56L85.76 700.928V267.008c0-31.573333 25.984-57.173333 58.026667-57.173333h719.061333c32 0 57.984 25.6 57.984 57.173333v255.36c17.024 9.386667 32.597333 20.949333 46.378667 34.346667v-289.706667c0-56.832-46.72-102.912-104.362667-102.912z m121.770667 543.146667c0 91.562667-75.306667 165.802667-168.192 165.802666-92.842667 0-168.149333-74.24-168.149334-165.802666s75.306667-165.802667 168.149334-165.802667c92.885333 0 168.192 74.24 168.192 165.802667z m-168.192-114.346667c-12.8 0-23.168 10.368-23.168 23.168v102.272a23.210667 23.210667 0 1 0 46.378666 0V616.106667c0-12.8-10.368-23.210667-23.210666-23.210667z m-0.298667 165.802667a22.869333 22.869333 0 0 0 0 45.738666h0.64a22.869333 22.869333 0 0 0 0-45.738666h-0.64z" fill="#7788AA" opacity=".25" p-id="604" data-spm-anchor-id="a313x.search_index.i1.i0.41983a81h4IAb1"></path></svg>